<?xml version="1.0" encoding="utf-8"?>
<!-- Generator: Adobe Illustrator 15.1.0, SVG Export Plug-In . SVG Version: 6.00 Build 0)  -->
<!DOCTYPE svg PUBLIC "-//W3C//DTD SVG 1.1//EN" "http://www.w3.org/Graphics/SVG/1.1/DTD/svg11.dtd">
<svg version="1.1" id="Layer_1" xmlns="http://www.w3.org/2000/svg" xmlns:xlink="http://www.w3.org/1999/xlink" x="0px" y="0px"
	 width="150px" height="150px" viewBox="0 0 150 150" enable-background="new 0 0 150 150" xml:space="preserve">
<g id="Слой_x0020_1">
	<path fill="#E22227" d="M31.416,115.285c-0.142,2.041-1.105,4.252-2.919,6.634c-2.041,2.749-4.593,4.79-7.654,6.18
		c0.794,0.425,1.276,1.105,1.446,2.013c0.142,0.766,0.028,1.729-0.284,2.863c-0.312,1.133-0.793,2.182-1.417,3.089
		c-1.672,2.495-3.798,4.649-6.406,6.464c-1.559,1.076-3.118,1.927-4.733,2.522c0.368,0.283,0.821,0.51,1.36,0.681
		c1.19,0.425,2.494,0.51,3.826,0.254c3.261-0.595,6.521-2.862,9.837-6.803c1.843-2.211,4.082-5.499,6.718-9.864l-0.085-0.057
		c-2.438,3.43-4.195,5.244-5.244,5.414c-0.766,0.142-1.19-0.17-1.332-0.936c-0.227-1.389,0.312-3.118,1.672-5.188
		c0.907-1.389,2.041-2.665,3.459-3.827c1.417-1.162,2.579-1.813,3.486-1.984c0.283-0.057,0.51-0.057,0.709,0.029
		c0.198,0.057,0.312,0.255,0.368,0.538c0.085,0.481-0.113,1.134-0.596,1.928l0.114,0.057c0.878-1.304,1.474-2.098,1.813-2.409
		c0.284-0.227,0.652-0.396,1.049-0.453c-0.085,0.141-1.389,2.408-3.883,6.774c-2.552,4.45-4.876,7.852-6.917,10.233
		c-3.486,4.024-7.115,6.377-10.97,7.086c-1.56,0.283-3.033,0.199-4.365-0.312c-0.681-0.255-1.248-0.567-1.701-0.964
		c-0.879,0.312-1.786,0.539-2.693,0.709c-1.87,0.34-3.345,0.255-4.394-0.256c-1.077-0.538-1.615-1.445-1.7-2.749
		c-0.085-1.956,0.821-3.799,2.721-5.442c1.814-1.588,3.997-2.608,6.52-3.033c1.956-0.34,3.771-0.313,5.472,0.113
		c1.672,0.425,2.806,1.19,3.401,2.268l0.851-1.134c0.708-0.964,1.247-2.013,1.644-3.118s0.567-2.013,0.482-2.75
		c-0.086-0.766-0.454-1.219-1.105-1.389c-0.539,0.283-1.135,0.539-1.843,0.794c-0.341,0.113-0.652,0.142-0.964,0.113
		s-0.454-0.17-0.454-0.397c0.057-0.595,0.681-0.963,1.871-1.076c0.822-0.086,1.418-0.086,1.729-0.029
		c2.409-1.049,4.62-3.033,6.604-5.924c1.729-2.551,2.778-4.904,3.146-7.059c0.113-0.736,0.142-1.389,0.057-1.898
		c-0.198-1.162-0.879-1.673-2.098-1.588c-1.304,0.113-2.807,0.851-4.479,2.211c-1.247,0.992-2.353,2.126-3.345,3.345
		c-2.467,3.118-3.572,5.556-3.26,7.257c0.17,0.992,0.793,1.389,1.87,1.19c1.248-0.227,2.608-1.445,4.11-3.685
		c0.567-0.851,1.049-2.013,1.475-3.43c0.17-0.652,0.255-0.965,0.227-0.965c0.028,0.113,0.085,0.199,0.142,0.284
		c0.028,0.227,0,0.481,0,0.737c-0.113,1.105-0.566,2.268-1.36,3.486c-1.446,2.296-2.977,3.6-4.536,3.883
		c-0.396,0.086-0.793,0.057-1.162-0.027c-0.708-0.199-1.162-0.766-1.304-1.673c-0.17-0.964,0.028-2.126,0.539-3.487
		c0.51-1.389,1.275-2.664,2.268-3.883c1.134-1.361,2.381-2.523,3.741-3.543c1.588-1.135,3.062-1.843,4.479-2.098
		c2.268-0.426,3.571,0.425,3.911,2.579c0.085,0.511,0.113,1.049,0.085,1.644V115.285z M96.018,116.562
		c0.709-2.154,4.451-2.863,7.569-2.183C101.148,116.363,99.59,114.266,96.018,116.562z M139.104,112.649
		c0.113,0.624-0.142,0.964-0.737,1.077c-0.623,0.113-0.992-0.142-1.077-0.736c-0.028-0.256,0.028-0.482,0.17-0.737
		c0.171-0.228,0.369-0.397,0.596-0.425c0.227-0.057,0.453,0.027,0.681,0.197c0.227,0.171,0.34,0.369,0.396,0.624H139.104z
		 M150.074,93.969L150.074,93.969c0.057,0.397-0.057,0.879-0.396,1.361c-2.098,3.288-5.216,7.88-9.326,13.748
		c-0.481,0.709-0.765,1.021-0.879,0.963c-0.085-0.027-0.113-0.084-0.113-0.141c-0.028-0.143,0.113-0.454,0.426-0.992
		c1.644-2.863,4.11-7.115,7.398-12.756c0.312-0.539,0.623-1.078,0.964-1.616c0.453-0.651,0.85-0.992,1.19-1.049
		C149.763,93.402,150.018,93.572,150.074,93.969z M138.878,99.27c-3.43,4.593-5.981,8.447-7.653,11.537
		c-1.021,1.843-1.475,3.005-1.39,3.486c0.028,0.199,0.142,0.313,0.284,0.341c0.595,0.198,1.927-0.936,4.024-3.373
		c0.879-1.021,2.098-2.608,3.686-4.733c0.198-0.313,0.396-0.341,0.538-0.143c0.113,0.17,0.085,0.396-0.113,0.681
		c-1.304,1.7-2.494,3.231-3.628,4.62c-1.928,2.354-3.401,3.629-4.422,3.799c-1.105,0.198-1.729-0.227-1.928-1.275
		c-0.113-0.709,0.057-1.616,0.51-2.693c-2.636,3.316-4.592,5.103-5.924,5.329c-1.049,0.198-1.645-0.227-1.814-1.304
		c-0.312-1.928,0.481-4.422,2.438-7.427c1.275-1.956,2.863-3.771,4.791-5.414c1.928-1.645,3.515-2.608,4.847-2.835
		c0.964-0.17,1.531,0.085,1.645,0.794c0.113,0.681-0.227,1.587-1.021,2.722c1.645-2.041,2.778-3.232,3.373-3.572
		C137.603,99.525,138.197,99.355,138.878,99.27z M133.521,100.518L133.521,100.518c-1.475,0.283-4.054,3.061-7.739,8.361
		c-2.324,3.346-3.401,5.613-3.203,6.775c0.028,0.227,0.171,0.369,0.369,0.426c0.453,0.113,1.445-0.652,2.977-2.325
		c1.53-1.673,3.09-3.685,4.62-6.065c2.494-3.884,3.713-6.123,3.6-6.747c-0.057-0.34-0.283-0.511-0.651-0.425H133.521z
		 M124.194,102.048c-0.113,0.198-1.956,3.401-5.527,9.638c-3.629,6.321-6.917,11.169-9.809,14.514
		c-4.932,5.697-10.119,9.043-15.562,10.063c-2.239,0.426-4.309,0.256-6.208-0.425c-2.069-0.737-3.373-1.956-3.912-3.601
		c-0.255-0.736-0.255-1.189,0.028-1.303c0.142-0.086,0.313,0.141,0.511,0.708c0.566,1.644,1.813,2.807,3.798,3.487
		c1.701,0.623,3.516,0.736,5.442,0.368c4.621-0.851,9.27-4.082,13.976-9.667c2.636-3.146,5.811-7.823,9.553-14.031l-0.113-0.085
		c-3.459,4.876-5.953,7.427-7.455,7.71c-1.077,0.199-1.701-0.254-1.871-1.332c-0.341-1.955,0.453-4.422,2.353-7.369
		c1.275-1.957,2.92-3.771,4.904-5.415c1.983-1.644,3.656-2.607,4.96-2.835c0.397-0.084,0.737-0.057,1.021,0.029
		c0.284,0.084,0.454,0.368,0.539,0.766c0.113,0.68-0.17,1.587-0.851,2.749l0.142,0.085c1.247-1.843,2.098-3.005,2.608-3.43
		c0.425-0.34,0.906-0.539,1.502-0.624H124.194z M119.403,103.125L119.403,103.125c-1.445,0.256-3.996,3.062-7.71,8.362
		c-2.353,3.401-3.458,5.642-3.26,6.747c0.028,0.254,0.17,0.425,0.396,0.481c0.482,0.113,1.503-0.681,3.033-2.325
		c1.531-1.672,3.062-3.685,4.593-6.065c2.522-3.912,3.741-6.18,3.628-6.804c-0.057-0.312-0.283-0.453-0.681-0.368V103.125z
		 M84.282,119.651c-0.736,0.821-1.474,1.332-2.211,1.502c-0.737,0.142-1.162-0.113-1.304-0.765c-0.737,1.02-1.673,2.664-2.835,4.903
		c-0.17,0.028-0.312-0.142-0.453-0.481c-0.113-0.34-0.113-0.596-0.057-0.794c0.538-1.758,1.587-3.912,3.203-6.463
		c0.936-1.446,1.757-2.552,2.494-3.317c0.454-0.453,1.19-0.793,2.154-0.963c-1.304,1.36-2.636,3.288-4.025,5.782
		c0.085,0.936,0.369,1.417,0.851,1.446c0.482,0.141,1.36-0.539,2.637-2.07c0.198-0.368,0.481-0.821,0.793-1.389
		c0.879-1.36,1.928-2.522,3.175-3.543c1.163-0.964,2.184-1.531,3.09-1.701c0.794-0.142,1.248,0.113,1.361,0.766
		c0.198,1.19-0.511,3.005-2.098,5.442c-2.297,3.487-4.167,5.357-5.585,5.642c-0.935,0.17-1.474-0.256-1.644-1.305
		c-0.17-0.963-0.028-1.898,0.396-2.75L84.282,119.651z M92.191,112.281L92.191,112.281c-1.105,0.198-2.835,2.154-5.216,5.867
		c-1.503,2.354-2.211,3.912-2.098,4.621c0.057,0.368,0.255,0.51,0.595,0.453c0.907-0.17,2.608-2.154,5.103-5.953
		c1.531-2.324,2.211-3.911,2.069-4.705c-0.028-0.255-0.198-0.34-0.481-0.283H92.191z M73.284,120.219
		c0.737-0.341,1.417-0.596,2.013-0.738c0.595-0.141,1.077-0.057,1.417,0.256c0.368,0.283,0.454,0.822,0.283,1.588
		c-0.17,0.765-0.538,1.474-1.105,2.125c-1.332,1.56-2.579,2.467-3.77,2.778c-0.624,0.17-1.105,0.142-1.503-0.085
		c-0.396-0.256-0.651-0.623-0.736-1.19c-0.228-1.474,0.425-3.261,1.927-5.358c1.191-1.615,2.354-2.891,3.459-3.826
		c0.51-0.453,1.134-0.709,1.928-0.766c-1.39,1.701-2.722,3.459-3.94,5.301L73.284,120.219z M71.696,122.826L71.696,122.826
		c-0.425,0.793-0.595,1.502-0.51,2.069c0.142,0.595,0.425,0.878,0.851,0.821c0.765-0.141,1.729-0.793,2.891-1.984
		c0.681-0.765,1.077-1.587,1.22-2.465c0.142-0.852,0-1.305-0.426-1.39c-0.566,0-1.219,0.227-1.928,0.737
		c-0.736,0.51-1.417,1.219-2.069,2.183L71.696,122.826z M70.194,114.039c0.822-0.341,1.758-0.992,2.835-1.9
		c1.049-0.935,1.87-2.012,2.466-3.287c0.567-1.049,0.567-1.673,0.057-1.786c-0.681,0.227-1.417,0.794-2.268,1.757
		c-1.701,1.928-3.657,4.508-5.925,7.739c-0.907,1.275-1.842,2.692-2.834,4.195c2.692-2.977,4.62-4.563,5.811-4.79
		c0.596-0.114,0.964,0.141,1.049,0.793c0.198,1.162-0.51,2.92-2.098,5.272c-2.438,3.571-4.818,5.585-7.144,6.009
		c-1.077,0.199-1.672-0.141-1.842-1.02c-0.199-1.191,0.765-3.459,2.862-6.775c3.288-5.131,6.208-9.014,8.731-11.564
		c0.481-0.482,1.049-0.908,1.672-1.248c0.539-0.283,1.219-0.481,1.984-0.623c0.851-0.143,1.219,0.312,1.134,1.332
		s-0.623,2.069-1.587,3.09c-0.652,0.822-1.361,1.502-2.126,1.984c-0.766,0.51-1.814,0.992-3.146,1.474
		c-0.256-0.113-0.143-0.34,0.34-0.624L70.194,114.039z M70.109,116.533L70.109,116.533c-1.105,0.198-3.062,1.928-5.868,5.158
		c-0.878,1.021-1.615,2.07-2.154,3.09c-0.538,1.021-0.793,1.787-0.708,2.24c0.057,0.425,0.312,0.596,0.765,0.538
		c0.624-0.113,1.361-0.651,2.239-1.644c0.596-0.681,1.588-2.013,3.033-3.997c0.652-0.879,1.276-1.786,1.928-2.665
		c0.879-1.275,1.304-2.098,1.247-2.466c-0.028-0.198-0.198-0.283-0.481-0.227V116.533z M61.832,118.461
		c0.198,1.19-0.51,3.004-2.098,5.442c-2.296,3.486-4.167,5.357-5.584,5.641c-0.936,0.17-1.475-0.255-1.645-1.304
		c-0.227-1.418,0.341-3.203,1.701-5.301c0.879-1.361,1.928-2.523,3.175-3.543c1.162-0.965,2.183-1.531,3.09-1.701
		C61.266,117.554,61.719,117.809,61.832,118.461z M60.84,118.121L60.84,118.121c-1.105,0.197-2.835,2.154-5.216,5.867
		c-1.502,2.353-2.211,3.912-2.098,4.62c0.057,0.368,0.255,0.511,0.596,0.454c0.907-0.17,2.607-2.154,5.103-5.953
		c1.502-2.324,2.211-3.912,2.069-4.705c-0.057-0.256-0.199-0.341-0.482-0.283H60.84z M52.647,116.137
		c-0.481,0.368-0.935,0.793-1.275,1.246c-2.268,2.949-3.94,5.443-5.046,7.455c0.737-1.02,1.673-2.098,2.778-3.26
		c1.389-1.417,2.438-2.211,3.09-2.324c0.51-0.084,0.822,0.199,0.936,0.879c0.113,0.624,0,1.445-0.312,2.467
		c-0.313,0.992-0.737,1.928-1.333,2.749c-2.438,3.601-4.648,5.528-6.661,5.868c-0.312,0.057-0.652,0-0.964-0.143
		c-0.198-0.084-0.312-0.227-0.368-0.453s-0.028-0.368,0.085-0.396c0.113-0.057,0.227,0.028,0.312,0.227
		c0.17,0.227,0.396,0.312,0.681,0.283c0.623-0.057,1.275-0.51,1.956-1.304c0.708-0.794,1.813-2.381,3.345-4.733
		c1.644-2.552,2.438-4.055,2.381-4.536c-0.028-0.17-0.142-0.227-0.34-0.198c-0.624,0.113-1.758,1.077-3.373,2.863
		c-1.503,1.672-2.778,3.345-3.884,4.988c-3.26,4.961-5.925,9.639-7.938,14.032c-0.396,0.878-0.623,1.304-0.68,1.275
		c-0.085,0.028-0.142-0.028-0.198-0.17c-0.029-0.085-0.058-0.228-0.086-0.454c0-0.198,0-0.368,0-0.566
		c0.028-1.162,0.907-3.373,2.637-6.633c1.474-2.835,3.685-6.492,6.633-11.027c1.984-3.033,3.742-5.357,5.301-6.945
		c0.283-0.227,0.652-0.538,1.19-0.906c0.454-0.227,0.794-0.34,1.077-0.34L52.647,116.137z M43.917,121.777
		c0.198,1.19-0.51,3.004-2.098,5.442c-2.296,3.486-4.167,5.357-5.584,5.641c-0.936,0.171-1.475-0.255-1.645-1.304
		c-0.227-1.418,0.341-3.203,1.701-5.301c0.879-1.36,1.928-2.523,3.175-3.543c1.162-0.964,2.183-1.531,3.062-1.701
		c0.794-0.142,1.247,0.113,1.36,0.766H43.917z M42.925,121.438L42.925,121.438c-1.105,0.197-2.834,2.154-5.216,5.867
		c-1.502,2.353-2.211,3.912-2.098,4.621c0.057,0.367,0.256,0.51,0.596,0.453c0.907-0.17,2.607-2.154,5.103-5.953
		c1.502-2.324,2.211-3.912,2.069-4.705c-0.028-0.256-0.199-0.34-0.482-0.283H42.925z M8.343,144.822
		c-0.256-0.312-0.454-0.68-0.567-1.076c-0.17-0.539-0.17-0.822,0-0.908c0.113-0.057,0.227,0.114,0.34,0.511
		c0.17,0.481,0.426,0.907,0.766,1.276c3.09-1.305,6.095-3.714,8.958-7.285l0,0c-0.567-1.049-1.645-1.729-3.204-2.07
		c-1.559-0.34-3.288-0.312-5.215,0.057c-2.098,0.426-4.082,1.305-5.925,2.637c-2.324,1.701-3.288,3.543-2.977,5.527
		c0.17,0.936,0.709,1.56,1.673,1.899c0.964,0.341,2.239,0.368,3.77,0.085c0.794-0.142,1.56-0.368,2.354-0.652H8.343z
		 M33.287,123.251L33.287,123.251c-1.021,0.198-2.835,2.154-5.442,5.896c-1.673,2.381-2.438,3.968-2.296,4.733
		c0.028,0.17,0.113,0.283,0.283,0.34c0.34,0.086,1.049-0.481,2.126-1.644s2.154-2.579,3.231-4.252
		c1.786-2.749,2.637-4.365,2.552-4.79c-0.028-0.228-0.199-0.313-0.482-0.256L33.287,123.251z"/>
	<path fill="#266EB7" d="M74.446,11.68c-4.309,7.483-10.063,13.011-15.165,20.012c-0.652,0.907,0.34,0.539,0.85,0
		c1.106-1.19,2.269-2.324,3.459-3.43c10.034-9.354,14.684-12.189,16.072-15.081c1.389,2.892,6.01,5.698,16.072,15.081
		c1.162,1.105,2.324,2.239,3.458,3.43c0.511,0.539,1.503,0.907,0.851,0C94.912,24.69,89.187,19.163,84.878,11.68
		c-3.288-5.698-4.224-8.618-5.131-8.703c-0.936-0.113-1.843,2.806-5.244,8.703H74.446z"/>
	<path fill="#266EB7" d="M51.372,75.402c10.913,19.105,46.403,19.077,57.288,0c0.454-0.822,1.275-1.162,0.794,0
		c-4.733,11.622-16.242,19.021-29.707,18.907c-12.954-0.113-24.491-7.313-29.197-18.851c-0.51-1.219,0.341-0.879,0.822-0.028V75.402
		z"/>
	<defs>
		<filter id="Adobe_OpacityMaskFilter" filterUnits="userSpaceOnUse" x="65.801" y="17.037" width="27.609" height="14.712">
			<feColorMatrix  type="matrix" values="1 0 0 0 0  0 1 0 0 0  0 0 1 0 0  0 0 0 1 0"/>
		</filter>
	</defs>
	<mask maskUnits="userSpaceOnUse" x="65.801" y="17.037" width="27.609" height="14.712" id="id0_1_">
		
			<linearGradient id="SVGID_1_" gradientUnits="userSpaceOnUse" x1="10396.3613" y1="-12367.6211" x2="10396.3613" y2="-12741.001" gradientTransform="matrix(0.0283 0 0 -0.0283 -215.0803 -331.4602)">
			<stop  offset="0" style="stop-color:#FFFFFF"/>
			<stop  offset="1" style="stop-color:#FFFFFF;stop-opacity:0"/>
		</linearGradient>
		<rect x="65.801" y="17.065" fill="url(#SVGID_1_)" filter="url(#Adobe_OpacityMaskFilter)" width="27.638" height="14.712"/>
	</mask>
	<path mask="url(#id0_1_)" fill="#1897D4" d="M79.407,29.623c-4.479,0.028-9.015,0.737-13.606,2.126
		c0.794-0.992,1.445-2.069,2.438-2.863c6.548-5.131,9.979-9.014,11.396-11.849c1.445,2.834,4.79,6.718,11.339,11.849
		c0.992,0.794,1.644,1.871,2.438,2.863c-4.592-1.389-9.553-2.098-14.06-2.126H79.407z"/>
	<defs>
		<filter id="Adobe_OpacityMaskFilter_1_" filterUnits="userSpaceOnUse" x="59.649" y="75.261" width="40.563" height="12.192">
			<feColorMatrix  type="matrix" values="1 0 0 0 0  0 1 0 0 0  0 0 1 0 0  0 0 0 1 0"/>
		</filter>
	</defs>
	<mask maskUnits="userSpaceOnUse" x="59.649" y="75.261" width="40.563" height="12.192" id="id2_1_">
		
			<linearGradient id="SVGID_2_" gradientUnits="userSpaceOnUse" x1="10407.3574" y1="-14753.0732" x2="10407.3574" y2="-14374.3086" gradientTransform="matrix(0.0283 0 0 -0.0283 -215.0803 -331.4602)">
			<stop  offset="0" style="stop-color:#FFFFFF"/>
			<stop  offset="1" style="stop-color:#FFFFFF;stop-opacity:0"/>
		</linearGradient>
		<rect x="59.649" y="75.261" fill="url(#SVGID_2_)" filter="url(#Adobe_OpacityMaskFilter_1_)" width="40.563" height="12.188"/>
	</mask>
	<path mask="url(#id2_1_)" fill="#1897D4" d="M100.213,75.261c-12.33,4.167-25.767,4.365-40.563,0
		C67.388,91.531,92.503,91.503,100.213,75.261z"/>
	<path fill="#266EB7" d="M12.311,52.158c-0.198,0.142-0.17,0.907,0.057,0.992c0.794-0.028,2.211-0.085,5.103-0.085
		c2.637,0,4.309,0.057,4.989,0.085c0.17-0.085,0.255-0.879,0.028-0.992c-0.737-0.085-1.219-0.17-1.616-0.255
		c-0.85-0.199-1.049-0.539-1.077-1.531c-0.028-1.361-0.057-4.309-0.057-5.783c0-0.057,0.057-0.085,0.085-0.085
		c1.22,0.255,1.645,0.765,2.297,1.814c1.842,2.891,2.976,4.819,4.195,5.896c0.481,0.369,1.02,0.709,2.268,0.907
		c1.049,0.142,4.677,0.142,5.527,0.028c0.198-0.028,0.227-0.992,0.057-0.992c-2.381-0.198-2.807-0.34-4.648-2.834
		c-1.39-1.871-2.212-3.118-3.09-4.252c-0.596-0.822-1.503-1.446-2.013-1.672c-0.057-0.028-0.057-0.057-0.028-0.114
		c0.68-0.539,1.247-1.474,2.154-3.118c0.992-1.729,1.559-2.154,2.154-2.154c0.623,0,1.445,0.199,2.041,0.539
		c0.028,0.028,0.227-0.028,0.283-0.17c0.34-0.482,0.879-1.843,0.851-2.636c0-0.057-0.057-0.284-0.227-0.397
		c-0.369-0.255-1.021-0.368-1.361-0.368c-2.239,0-3.288,1.389-5.301,5.187c-0.453,0.879-0.822,1.587-1.502,2.325
		c-0.737,0.708-1.758,1.021-3.515,1.077c-0.143,0-0.199-0.113-0.199-0.17c0-1.673-0.028-4.082,0-5.216
		c0.028-1.021,0.199-1.474,1.19-1.616c0.426-0.085,0.482-0.114,1.135-0.199c0.198-0.085,0.17-0.936,0-0.992
		c-0.567-0.028-1.899,0.085-4.649,0.085c-2.211,0-4.252-0.085-4.903-0.085c-0.199,0.085-0.256,0.907-0.058,1.021
		c0.652,0.085,0.992,0.113,1.446,0.199c0.936,0.17,1.077,0.68,1.162,1.445c0.057,1.077,0.028,3.572,0.028,5.443
		c0,2.324,0,5.13-0.028,6.463c-0.057,1.502-0.255,1.842-1.445,2.041c-0.369,0.057-0.624,0.113-1.276,0.198L12.311,52.158z"/>
	<path fill="#266EB7" d="M30.595,46.688c-0.143,0.057-0.086,0.907,0.028,1.049c0.595,0,1.842-0.085,2.777-0.085
		c0.794,0,2.58,0.085,3.118,0.085c0.198-0.085,0.255-0.936,0.198-1.049c-0.68-0.142-1.162-0.255-1.417-0.369
		c-0.425-0.17-0.596-0.51-0.368-1.304c0.255-0.878,1.219-3.515,1.842-5.074c0.028-0.057,0.143-0.085,0.171,0
		c0.623,1.304,1.983,4.479,2.494,5.896c0.142,0.425,0,0.51-0.142,0.567c-0.227,0.113-0.567,0.17-0.851,0.284
		c-0.057,0.057,0,0.964,0.142,1.049c0.624-0.028,2.268-0.085,3.26-0.085c0.964,0,3.458,0.057,4.394,0.085
		c0.085-0.085,0.199-0.936,0.057-1.049c-1.474-0.284-1.955-0.34-2.636-1.786c-0.794-1.616-3.203-7.143-4.224-9.666
		c-0.028-0.142-0.198-0.227-0.283-0.227c-0.256,0-2.665,1.077-3.033,1.36c-0.057,0.057-0.085,0.227-0.057,0.312
		c0.283,0.652,0.34,0.822,0.057,1.474c-0.851,2.098-2.069,5.074-2.75,6.378c-0.794,1.616-0.992,1.871-2.806,2.154H30.595z"/>
	<path fill="#266EB7" d="M62.456,36.228c2.013,0,2.692,2.495,2.692,5.868c0,2.551-0.396,4.706-2.013,4.706
		c-1.7,0-2.834-2.239-2.834-6.18c0-2.636,0.623-4.365,2.154-4.365V36.228z M47.007,46.688c-0.057,0.113-0.085,0.878,0,1.049
		c0.822,0,1.956-0.085,3.799-0.085c1.474,0,2.919,0.085,3.826,0.085c0.142-0.142,0.198-0.851,0.17-1.049
		c-0.481-0.085-0.821-0.142-1.049-0.255c-0.425-0.142-0.623-0.369-0.651-1.275c-0.028-0.936-0.028-1.871-0.028-3.09h1.332
		c0.396,0,1.219-0.028,1.474-0.085c0.284,3.572,2.495,6.009,6.832,6.009c1.786,0,3.316-0.482,4.309-1.105
		c1.701-1.077,2.835-2.948,2.835-5.499c0-3.515-2.438-6.406-6.86-6.406c-1.644,0-3.316,0.481-4.337,1.162
		c-1.758,1.134-2.579,2.778-2.692,4.422c-0.652,0-1.899,0-2.608-0.057c-0.142-0.028-0.227-0.113-0.255-0.255V37.39
		c0.028-0.51,0.198-0.765,0.737-0.879c0.396-0.085,0.566-0.085,0.821-0.142c0.142-0.057,0.142-0.936,0-1.049
		c-0.255,0-1.389,0.085-3.713,0.085c-1.984,0-3.203-0.085-3.657-0.085c-0.17,0.085-0.198,0.851-0.085,0.992
		c0.369,0.057,0.624,0.113,0.936,0.227c0.539,0.142,0.681,0.369,0.737,0.851c0.028,0.681,0.028,2.778,0.028,3.798
		c0,1.446-0.028,3.317-0.057,3.997c-0.028,0.793-0.17,1.049-0.681,1.219c-0.227,0.085-0.538,0.142-1.021,0.255L47.007,46.688z"/>
	<path fill="#266EB7" d="M76.771,46.688c-0.085,0.142-0.085,0.907,0.057,1.049c0.539-0.028,2.92-0.085,4.054-0.085
		c1.19,0,3.175,0.085,4.082,0.085c0.142-0.142,0.227-0.936,0.142-1.049c-0.34-0.085-0.596-0.113-0.992-0.227
		c-0.566-0.113-0.879-0.34-0.936-1.134c-0.028-0.793-0.057-2.324-0.057-3.968c-0.028-1.333,0-3.005,0.028-3.799
		c0.028-0.538,0.085-0.793,0.851-0.963c0.227-0.057,0.596-0.142,0.822-0.17c0.057-0.17,0.057-0.907,0-1.077
		c-1.219,0.028-2.41,0.085-3.771,0.085c-0.936,0-3.203-0.057-3.713-0.057c-0.085,0.057-0.142,0.851-0.057,0.992
		c0.34,0.057,0.566,0.113,0.793,0.227c0.539,0.142,0.737,0.34,0.737,0.822c0.028,1.021,0.028,2.636,0.028,3.685
		c-0.34,0.113-0.822,0.227-1.332,0.227c-1.19,0-2.041-0.454-2.041-1.984c-0.028-0.851-0.028-1.672,0.028-2.239
		c0.028-0.454,0.17-0.567,0.964-0.737c0.142-0.057,0.142-0.907,0-1.049c-0.255,0-1.445,0.085-3.175,0.085
		c-1.984,0-3.203-0.085-3.657-0.085c-0.142,0.085-0.17,0.851-0.085,0.992c0.397,0.057,0.624,0.113,0.936,0.227
		c0.482,0.142,0.681,0.369,0.737,0.851c0,1.021-0.028,1.758-0.028,2.438c0,1.19,0.368,1.842,1.021,2.353
		c0.681,0.539,1.843,0.794,3.062,0.794c1.162,0,2.409-0.284,3.628-0.794c0,1.248,0.028,2.41-0.028,3.26
		c-0.028,0.425-0.085,0.822-0.623,0.936c-0.454,0.113-0.879,0.17-1.446,0.284L76.771,46.688z"/>
	<path fill="#266EB7" d="M98.739,43.995c-1.247,0.878-2.409,1.19-3.799,1.19c-1.36,0-2.353-0.34-3.118-1.049
		c-0.793-0.737-1.19-1.672-1.247-2.495c0-0.085,0.057-0.283,0.142-0.312c2.354-0.085,7.229-0.369,8.164-0.681
		c0.085-0.057,0.227-0.737,0.198-0.822c-0.17-0.057-0.453-0.255-0.481-0.425c-0.283-1.672-1.56-4.422-5.244-4.422
		c-1.332,0-2.807,0.396-3.969,1.049c-1.786,1.049-3.09,2.976-3.09,5.499c0,1.871,0.567,3.742,1.984,4.989
		c1.021,0.907,2.438,1.474,4.422,1.474c2.183,0,4.621-1.134,6.066-2.778c0.028-0.113,0.198-0.708,0.17-1.021
		c0-0.085-0.142-0.17-0.17-0.227L98.739,43.995z M92.333,36.228c1.247,0,1.984,1.389,2.069,3.345c0,0.113-0.085,0.255-0.198,0.284
		c-0.567,0.113-2.778,0.113-3.516,0.085c-0.142,0-0.198-0.142-0.198-0.17C90.49,37.73,91.228,36.228,92.333,36.228z"/>
	<path fill="#266EB7" d="M99.788,46.688c-0.085,0.113-0.17,0.907,0.028,1.077c1.786,0,4.648,0.113,6.038,0.113
		c1.757,0,3.288-0.085,4.705-0.539c1.956-0.624,3.231-1.757,3.231-3.515c0-1.672-1.417-2.522-3.43-2.891
		c-0.057-0.028-0.057-0.113,0.028-0.142c1.445-0.397,2.579-1.333,2.579-2.636c0-2.438-2.749-2.92-5.073-2.92
		c-2.269,0-5.67,0.142-8.022,0.255c-0.142,0.085-0.17,0.85,0,0.963c0.481,0.085,1.049,0.227,1.445,0.454
		c0.228,0.114,0.256,0.284,0.284,0.567c0.057,0.539,0.028,2.636,0.028,3.799c0,1.247-0.028,3.26-0.057,4.365
		c0,0.396-0.085,0.652-0.596,0.765c-0.34,0.085-0.737,0.17-1.219,0.284H99.788z M109.369,44.391c0,1.672-0.992,2.325-2.041,2.325
		c-0.283,0-0.851-0.142-1.077-0.369c-0.283-0.227-0.396-0.454-0.425-0.907c-0.028-0.963-0.028-2.353-0.028-3.543
		c0-0.028,0.028-0.085,0.17-0.114c2.268,0,3.43,0.936,3.43,2.636L109.369,44.391z M108.49,40.338
		c-0.198,0.17-0.623,0.312-1.077,0.312h-1.474c-0.085-0.028-0.142-0.057-0.142-0.085c0-1.134,0.028-3.515,0.028-3.968
		c0-0.085,0.057-0.17,0.17-0.17c1.871,0,3.118,0.822,3.118,2.495c0,0.765-0.256,1.19-0.624,1.446V40.338z"/>
	<path fill="#266EB7" d="M122.891,39.771c0,0.17,0,0.227-0.028,0.396c-0.028,0.114-0.142,0.312-0.256,0.34
		c-1.219,0.482-5.301,1.361-6.264,1.928c-0.256,0.34-0.567,1.445-0.567,1.842c0,1.19,0.453,2.325,1.275,3.005
		c0.567,0.454,1.247,0.737,2.013,0.737c0.482,0,2.069-0.454,3.657-1.474c0-0.029,0.142-0.029,0.142,0.028
		c0.028,0.142,0.113,0.368,0.17,0.51c0.198,0.539,0.879,0.936,2.013,0.936s2.749-0.454,3.6-1.19c0.085-0.113,0.227-1.134,0.17-1.219
		c-0.453,0.113-0.736,0.142-1.077,0.142c-0.68,0-0.879-0.624-0.879-1.162c0-1.248,0.058-3.231,0.058-4.677
		c0-1.049-0.171-2.154-0.822-3.09c-0.794-1.077-2.154-1.871-3.912-1.871c-1.049,0-3.486,0.822-5.188,1.956
		c-0.227,0.17-0.68,1.758-0.68,1.984c-0.029,0.17,1.02,0.652,1.19,0.51c0.17-0.312,0.821-1.559,1.077-1.786
		c0.227-0.255,0.878-0.425,1.615-0.425c0.851,0,1.701,0.283,2.239,0.936c0.397,0.481,0.482,1.049,0.482,1.587L122.891,39.771z
		 M122.862,41.698c0,0.51,0,2.381-0.057,3.316c0,0.312-0.085,0.482-0.199,0.539c-0.17,0.142-0.425,0.17-0.736,0.17
		c-0.992,0-2.154-0.68-2.154-2.239c0-0.284,0.17-0.907,0.255-1.021c0.368-0.284,1.956-0.709,2.778-0.964
		c0.028,0,0.085,0.085,0.085,0.142L122.862,41.698z"/>
	<path fill="#266EB7" d="M147.382,35.944c0.17-0.17,0.142-0.907-0.028-0.992c-0.794,0-2.778,0.085-4.054,0.085
		c-1.389,0-2.863-0.057-5.329-0.057c-5.046,0-7.71,2.012-7.71,4.819c0,2.268,1.502,4.11,4.677,4.649
		c0.057,0.028,0.057,0.113,0,0.142c-1.587,0.793-3.118,3.09-5.584,5.839c-0.992,1.077-1.389,1.219-3.203,1.446
		c-0.142,0.057-0.057,0.992,0.142,1.049c1.587,0.085,4.989-0.028,6.293-0.596c0.794-0.34,1.502-0.85,1.814-1.275
		c1.077-1.247,2.069-2.806,3.175-4.28c0.878-1.19,1.7-1.899,2.183-1.928h0.34c0.057,0,0.17,0.113,0.17,0.17
		c0,1.814-0.028,3.515-0.057,5.131c-0.057,0.879-0.255,1.219-0.964,1.417c-0.595,0.142-0.851,0.142-1.587,0.255
		c-0.17,0.029-0.085,0.936,0.057,0.992c1.049,0,2.607-0.085,4.733-0.085c2.183,0,4.082,0.085,5.018,0.085
		c0.142-0.085,0.255-0.878,0.085-0.992c-0.453-0.057-1.19-0.17-1.559-0.255c-0.737-0.142-1.049-0.454-1.077-1.361
		c-0.058-0.907-0.086-3.94-0.086-5.726c0-2.835,0-5.698,0.058-6.974c0.028-0.765,0.368-1.19,0.991-1.332
		C146.276,36.086,146.729,36.001,147.382,35.944z M139.898,36.313c0.198,0.057,0.255,0.312,0.255,0.454
		c0.028,1.474,0.028,4.564,0.057,6.718c0,0.113-0.085,0.17-0.17,0.17c-2.069,0.028-4.904-0.737-4.904-3.997
		c0-2.154,1.247-3.458,3.629-3.458C139.246,36.199,139.644,36.228,139.898,36.313z"/>
	<path fill="#266EB7" d="M38.758,67.777c-0.142,0.17-0.227,1.275,0.057,1.502c2.58,0,6.69,0.17,8.703,0.17
		c2.522,0,4.762-0.142,6.803-0.766c2.807-0.85,4.648-2.466,4.648-4.904c0-2.353-2.041-3.543-4.932-4.054
		c-0.085-0.057-0.085-0.17,0.057-0.227c2.098-0.567,3.713-1.871,3.713-3.657c0-3.401-3.939-4.082-7.313-4.082
		c-3.288,0-8.163,0.227-11.537,0.34c-0.198,0.142-0.227,1.19,0,1.36c0.709,0.142,1.531,0.312,2.098,0.652
		c0.341,0.17,0.369,0.396,0.426,0.822c0.085,0.766,0.057,3.657,0.057,5.329c0,1.758-0.057,4.564-0.085,6.095
		c0,0.567-0.142,0.907-0.851,1.077c-0.481,0.142-1.049,0.255-1.758,0.397L38.758,67.777z M52.591,64.574
		c0,2.353-1.417,3.231-2.947,3.231c-0.426,0-1.248-0.227-1.56-0.51c-0.425-0.312-0.566-0.652-0.624-1.276
		c-0.057-1.36-0.057-3.288-0.057-4.932c0-0.057,0.057-0.142,0.228-0.17c3.288,0,4.932,1.332,4.932,3.657H52.591z M51.315,58.905
		c-0.283,0.255-0.907,0.425-1.559,0.425h-2.126c-0.142-0.057-0.199-0.085-0.199-0.142c0-1.587,0.058-4.904,0.058-5.527
		c0-0.142,0.085-0.255,0.227-0.255c2.721,0,4.507,1.163,4.507,3.487C52.223,57.969,51.854,58.564,51.315,58.905z"/>
	<path fill="#266EB7" d="M71.47,51.478c-2.494,0-4.875,0.765-6.435,1.701c-2.466,1.502-4.11,4.054-4.11,7.285
		c0,5.074,3.09,9.156,10.035,9.156c2.183,0,4.79-0.765,6.236-1.616c2.551-1.502,4.138-4.082,4.138-7.625
		c0-4.989-3.515-8.901-9.893-8.901H71.47z M70.421,53.179c2.835,0,4.365,3.316,4.365,8.391c0,3.231-0.51,5.017-1.587,5.924
		c-0.312,0.312-0.879,0.482-1.418,0.482c-2.466,0-4.365-2.892-4.365-8.759c0-3.231,0.596-4.819,1.786-5.612
		c0.368-0.227,0.822-0.397,1.219-0.397V53.179z"/>
	<path fill="#266EB7" d="M89.102,58.649c0.057-0.085,0.198-0.085,0.227,0c0.964,2.041,3.005,6.974,3.43,8.306
		c0.057,0.085-0.085,0.255-0.142,0.255h-6.548c-0.085,0-0.227-0.142-0.198-0.255C86.153,65.963,88.591,59.982,89.102,58.649z
		 M88.251,53.405c-0.085,0.085-0.198,0.312-0.085,0.425c0.34,0.992,0.425,1.162,0.085,2.041c-0.851,2.126-3.43,8.079-4.791,10.857
		c-0.085,0.227-0.34,0.396-0.651,0.425c-0.34,0.028-1.219,0.142-1.219,0.142c-0.057,0.057-0.142,0.17-0.142,0.227
		c0.425,1.417,0.708,3.742,0.85,6.038c0.085,0.142,0.539,0.114,0.652-0.057c0.142-0.935,2.324-4.365,3.43-4.365h9.979
		c1.445,0,3.146,3.345,3.231,4.422c0.198,0.17,0.651,0.057,0.793-0.085c0.511-3.203,1.163-4.847,1.645-6.038
		c0.057-0.085,0-0.312-0.085-0.312l-1.673,0.057c-0.283,0-0.623-0.227-0.821-0.51c-1.191-2.183-5.131-11.141-6.662-14.712
		c-0.085-0.34-0.368-0.425-0.51-0.425c-0.369,0-3.458,1.502-3.997,1.927L88.251,53.405z"/>
	<path fill="#266EB7" d="M113.649,58.139c0,0.255,0,0.312-0.057,0.567c-0.057,0.17-0.198,0.425-0.368,0.482
		c-1.758,0.681-7.654,1.928-9.043,2.693c-0.368,0.482-0.822,2.013-0.822,2.551c0,1.672,0.652,3.231,1.843,4.224
		c0.822,0.652,1.814,1.021,2.892,1.021c0.708,0,3.005-0.652,5.272-2.041c0-0.057,0.198-0.057,0.198,0.057
		c0.057,0.227,0.142,0.51,0.227,0.737c0.283,0.765,1.275,1.332,2.892,1.332c1.615,0,3.94-0.652,5.188-1.672
		c0.142-0.17,0.34-1.587,0.227-1.701c-0.652,0.17-1.049,0.227-1.559,0.227c-0.992,0-1.276-0.85-1.276-1.616
		c0-1.757,0.085-4.507,0.085-6.52c0-1.446-0.227-3.033-1.19-4.309c-1.134-1.502-3.09-2.608-5.669-2.608
		c-1.531,0-5.046,1.162-7.455,2.721c-0.34,0.255-0.992,2.466-0.992,2.778c-0.057,0.255,1.474,0.907,1.701,0.737
		c0.227-0.425,1.19-2.183,1.559-2.523c0.34-0.34,1.275-0.595,2.324-0.595c1.247,0,2.467,0.397,3.231,1.332
		c0.567,0.681,0.709,1.446,0.709,2.211L113.649,58.139z M113.593,60.832c0,0.737,0,3.317-0.085,4.649
		c0,0.425-0.142,0.68-0.283,0.766c-0.228,0.227-0.624,0.255-1.049,0.255c-1.418,0-3.09-0.936-3.09-3.118
		c0-0.397,0.227-1.275,0.368-1.417c0.511-0.397,2.807-0.992,3.997-1.361C113.508,60.605,113.593,60.747,113.593,60.832z"/>
</g>
</svg>
